<svg xmlns="http://www.w3.org/2000/svg" width="25" height="25" viewBox="0 0 25 25">
    <g fill="none" fill-rule="evenodd" opacity=".9">
        <g>
            <g>
                <g>
                    <g>
                        <g>
                            <g>
                                <g>
                                    <g>
                                        <path fill="#D8D8D8" fill-opacity="0" d="M0 0H24V24H0z" transform="translate(-890 -856) translate(360 371) translate(0 220) translate(467 20.5) translate(0 235) translate(21.5) translate(42 10)"/>
                                        <g>
                                            <g fill="#9B9B9B">
                                                <path d="M16.427.09c1.163 0 2.115.901 2.195 2.044l.006.157.001 3.806c.855.225 1.485 1.002 1.485 1.926v9.478c.043.163.073.331.073.508 0 1.1-.892 1.991-1.99 1.991H1.99c-1.1 0-1.99-.892-1.99-1.99 0-.194.035-.375.085-.55V8.022c0-.9.599-1.661 1.42-1.907V2.29c0-1.163.901-2.115 2.043-2.196L3.706.09h12.721zm1.695 6.942c-.546 0-.99.444-.99.991v8.994H3.068V8.023c0-.547-.445-.99-.99-.99-.548 0-.993.443-.993.99V17.6l-.039.137c-.032.111-.047.198-.047.273 0 .545.444.991.991.991h16.205c.546 0 .991-.446.991-.99 0-.07-.013-.15-.04-.254l-.033-.125V8.023c0-.547-.445-.99-.992-.99zM16.427 1.09H3.706c-.62 0-1.132.474-1.194 1.078l-.006.123.001 3.787c.894.197 1.562.993 1.562 1.945v7.994h12.062V8.023c0-.928.636-1.709 1.496-1.929l.001-3.803c0-.62-.473-1.133-1.078-1.195l-.123-.006z" transform="translate(-890 -856) translate(360 371) translate(0 220) translate(467 20.5) translate(0 235) translate(21.5) translate(42 10) rotate(-90 12 10.5) translate(0 .91)"/>
                                            </g>
                                        </g>
                                    </g>
                                </g>
                            </g>
                        </g>
                    </g>
                </g>
            </g>
        </g>
    </g>
</svg>
